<?xml version="1.0" standalone="no"?>
<!DOCTYPE svg PUBLIC "-//W3C//DTD SVG 20010904//EN"
 "http://www.w3.org/TR/2001/REC-SVG-20010904/DTD/svg10.dtd">
<svg version="1.0" xmlns="http://www.w3.org/2000/svg"
 width="612.000000pt" height="612.000000pt" viewBox="0 0 612.000000 612.000000"
 preserveAspectRatio="xMidYMid meet">
<metadata>
Created by potrace 1.14, written by Peter Selinger 2001-2017
</metadata>
<g transform="translate(0.000000,612.000000) scale(0.100000,-0.100000)"
fill="#000000" stroke="none">
<path d="M1325 4120 c-31 -12 -64 -53 -75 -90 -12 -44 -13 -1881 0 -1934 5
-22 23 -53 39 -70 l31 -31 200 -3 200 -3 0 1070 0 1071 -187 -1 c-104 0 -197
-4 -208 -9z"/>
<path d="M4400 3060 l0 -1071 199 3 200 3 30 29 c17 17 36 46 41 65 13 46 13
1881 0 1935 -5 22 -23 53 -39 70 l-31 31 -200 3 -200 3 0 -1071z"/>
<path d="M5008 3924 c-5 -4 -8 -381 -8 -837 l0 -829 123 4 c136 4 169 16 203
72 18 30 19 63 19 763 0 723 0 732 -21 759 -45 61 -66 69 -192 72 -64 2 -120
0 -124 -4z"/>
<path d="M903 3850 c-63 -7 -108 -44 -123 -102 -7 -24 -10 -291 -8 -747 3
-699 3 -710 24 -737 46 -62 65 -69 200 -73 l124 -3 0 830 0 831 -82 3 c-46 2
-106 1 -135 -2z"/>
<path d="M570 3282 c-58 -28 -70 -66 -70 -220 0 -181 20 -224 114 -239 l36 -6
0 242 0 241 -22 0 c-13 0 -39 -8 -58 -18z"/>
<path d="M1858 3289 c-16 -9 -18 -31 -18 -229 0 -207 1 -220 19 -230 13 -7
406 -10 1201 -10 795 0 1188 3 1201 10 18 10 19 23 19 230 0 207 -1 220 -19
230 -27 14 -2379 13 -2403 -1z"/>
<path d="M5470 3060 l0 -243 36 6 c93 15 114 58 114 237 0 179 -21 222 -114
237 l-36 6 0 -243z"/>
</g>
</svg>
